<?xml version="1.0" standalone="no"?>
<!DOCTYPE svg PUBLIC "-//W3C//DTD SVG 20010904//EN"
 "http://www.w3.org/TR/2001/REC-SVG-20010904/DTD/svg10.dtd">
<svg version="1.0" xmlns="http://www.w3.org/2000/svg"
 width="700.000000pt" height="700.000000pt" viewBox="0 0 700.000000 700.000000"
 preserveAspectRatio="xMidYMid meet">
<metadata>
Created by potrace 1.11, written by Peter Selinger 2001-2013
</metadata>
<g transform="translate(0.000000,700.000000) scale(0.100000,-0.100000)"
fill="#000000" stroke="none">
<path d="M1625 5263 c-218 -25 -437 -104 -612 -220 -105 -71 -148 -106 -253
-213 -290 -295 -441 -665 -443 -1090 -1 -202 20 -345 75 -519 71 -224 180
-406 353 -589 203 -216 440 -356 705 -418 68 -16 85 -19 190 -33 86 -12 288
-7 375 9 293 52 563 195 768 405 270 276 421 587 463 950 8 72 9 296 1 345 -3
19 -9 58 -12 85 -9 64 -43 214 -54 240 -5 11 -17 43 -26 70 -46 131 -167 338
-262 449 -186 215 -381 360 -598 443 -88 34 -188 62 -248 69 -22 3 -60 9 -85
13 -43 9 -274 11 -337 4z m314 -504 c196 -29 364 -120 518 -283 234 -246 334
-542 299 -886 -22 -221 -109 -417 -266 -599 -193 -224 -436 -333 -725 -326
-118 4 -141 6 -220 26 -195 49 -400 197 -536 389 -204 287 -258 672 -143 1019
73 219 293 470 505 577 109 54 201 80 324 91 39 3 71 7 73 8 4 3 93 -5 171
-16z"/>
<path d="M4270 5157 c-60 -15 -124 -71 -157 -137 -16 -33 -17 -119 -18 -1320
0 -740 3 -1304 8 -1330 36 -174 255 -243 389 -122 77 69 72 36 78 622 l5 525
643 0 c354 0 646 -4 649 -9 3 -4 6 -234 6 -510 0 -402 3 -509 14 -542 15 -44
70 -107 113 -129 29 -15 96 -27 146 -27 49 0 137 46 169 88 57 75 55 18 55
1418 l0 1291 -24 51 c-72 156 -285 187 -409 59 -65 -66 -64 -59 -64 -686 0
-312 -3 -570 -6 -575 -4 -7 -1250 -12 -1289 -5 -5 0 -8 258 -8 572 0 405 -3
583 -12 610 -33 113 -170 187 -288 156z"/>
</g>
</svg>
