<?xml version="1.0"?>
<svg width="99.99999999999999" height="99.99999999999999" xmlns="http://www.w3.org/2000/svg" xmlns:svg="http://www.w3.org/2000/svg">
 <style type="text/css">.st0{fill:url(#SVGID_1_);}
	.st1{fill:url(#SVGID_2_);}</style>
 <linearGradient id="SVGID_1_" gradientUnits="userSpaceOnUse" x1="4.5" y1="55.15" x2="90.1465" y2="55.15" gradientTransform="matrix(1 0 0 -1 0 102)">
  <stop offset="0" stop-color="#0072c1"/>
  <stop offset="0.534" stop-color="#0072c1"/>
  <stop offset="1" stop-color="#0072c1"/>
 </linearGradient>
 <linearGradient id="SVGID_2_" gradientUnits="userSpaceOnUse" x1="4.2362" y1="54.45" x2="91.0251" y2="54.45" gradientTransform="matrix(1 0 0 -1 0 102)">
  <stop offset="0" stop-color="#0072c1"/>
  <stop offset="0.534" stop-color="#0072c1"/>
  <stop offset="1" stop-color="#0072c1"/>
 </linearGradient>
 <g>
  <title>Layer 1</title>
  <path class="st0" d="m10.6,62.4c-4.1,-4.3 -6.1,-9.5 -6.1,-15.6s2,-11.3 6.1,-15.6s9,-6.5 14.9,-6.5s10.8,2.2 14.9,6.6s6.1,9.6 6.1,15.6s-2.1,11.1 -6.2,15.5c-1.8,2 -4.1,3.7 -6.6,4.8c-2.6,1.2 -5.3,1.8 -8,1.8c-6,-0.1 -11,-2.2 -15.1,-6.6zm0.9,-15.6c0,4.1 1.4,7.7 4.1,10.7s6,4.5 9.9,4.5s7.2,-1.5 9.9,-4.5s4.1,-6.5 4.1,-10.6s-1.4,-7.6 -4.1,-10.6c-2.7,-3 -6,-4.5 -9.9,-4.5s-7.2,1.5 -9.9,4.5c-2.8,2.8 -4.1,6.4 -4.1,10.5z" id="svg_1" fill="#0072c1"/>
  <path class="st1" d="m91,65.5c0,0.5 -0.3,1.8 -1,2.4c-0.7,0.7 -1.7,1 -2.3,1c-1.2,0 -2.1,-0.3 -2.8,-1c-0.7,-0.6 -1,-1.4 -1,-2.4l0,-14l-18.6,0l0,13.9c0,1 -0.3,1.8 -1,2.4c-0.7,0.7 -1.5,1 -2.4,1s-1.7,-0.3 -2.4,-1s-1,-1.5 -1,-2.4l0,-35.8c0,-0.9 0.3,-1.7 1,-2.4c0.7,-0.7 1.5,-1 2.4,-1s1.7,0.3 2.4,1c0.7,0.7 1,1.5 1,2.4l0,15.9l18.6,0l0,-15.9c0,-0.9 0.3,-1.7 1,-2.4c0.7,-0.7 1.8,-1 2.7,-1s1.7,0.3 2.4,1c0.7,0.7 1,1.5 1,2.4" id="svg_2"/>
 </g>
</svg>